#define close_hover_width 12
#define close_hover_height 12
static char close_hover_bits[] = {
  0xF8, 0x00, 0xFC, 0x01, 0xFE, 0x03, 0x77, 0x07, 0xAF, 0x07, 0xDF, 0x07, 
  0xAF, 0x07, 0x77, 0x07, 0xFE, 0x03, 0xFC, 0x01, 0xF8, 0x00, 0x00, 0x00, 
  };
