#define max_toggled_width 12
#define max_toggled_height 12
static char max_toggled_bits[] = {
  0x00, 0x00, 0xF8, 0x00, 0xFC, 0x01, 0xFE, 0x03, 0xFE, 0x03, 0xFE, 0x03, 
  0xFE, 0x03, 0xFE, 0x03, 0xFC, 0x01, 0xF8, 0x00, 0x00, 0x00, 0x00, 0x00, 
  };
